<svg width="24" height="24" viewBox="0 0 24 24" fill="none" xmlns="http://www.w3.org/2000/svg">
<path fill-rule="evenodd" clip-rule="evenodd" d="M6.14461 0H14.1767L20.9738 7.09489V20.873C20.9738 22.5985 19.5811 24 17.8556 24H6.14461C4.42782 24 3.02637 22.5985 3.02637 20.873V3.11824C3.02634 1.40145 4.42782 0 6.14461 0Z" fill="white"/>
<path opacity="0.302" fill-rule="evenodd" clip-rule="evenodd" d="M14.168 0V7.03358H20.9738L14.168 0Z" fill="#6F6F6F"/>
<path d="M10.4892 17.4744H9.32427L8.52721 16.1343L7.73012 17.4744H6.5564L7.94035 15.1445L6.72284 13.1211H7.89653L8.52718 14.1722L9.14906 13.1211H10.3228L9.11401 15.1533L10.4892 17.4744ZM10.9009 17.4744V13.1211H12.0133V16.5284H13.9053V17.4744H10.9009V17.4744ZM15.7447 17.527C15.3067 17.527 14.9213 17.3868 14.5885 17.1153C14.2644 16.8525 14.0805 16.5197 14.0542 16.1255L15.009 15.8452C15.0352 16.0555 15.1228 16.2394 15.2717 16.3796C15.4294 16.5197 15.6046 16.5898 15.7973 16.5898C15.9549 16.5898 16.0863 16.5547 16.1914 16.4847C16.2878 16.4146 16.3403 16.3182 16.3403 16.2044C16.3403 16.108 16.2965 16.0292 16.2177 15.9591C16.1389 15.8978 16.0337 15.8452 15.9111 15.8015C15.7885 15.7577 15.6396 15.7139 15.4907 15.6788C15.333 15.635 15.1753 15.5825 15.0264 15.5124C14.8688 15.4511 14.7286 15.3723 14.606 15.2759C14.4746 15.1883 14.3783 15.0569 14.2994 14.8905C14.2206 14.7328 14.1768 14.5401 14.1768 14.3212C14.1768 13.962 14.3257 13.6642 14.6323 13.4277C14.9388 13.1825 15.3067 13.0686 15.7359 13.0686C16.1651 13.0686 16.5417 13.1737 16.8571 13.3752C17.1724 13.5854 17.3739 13.8569 17.4527 14.1898L16.4542 14.6102C16.4104 14.4263 16.3228 14.2774 16.2001 14.1635C16.0775 14.0584 15.9199 13.9971 15.7359 13.9971C15.5957 13.9971 15.4906 14.0321 15.4031 14.0847C15.3242 14.1373 15.2892 14.2161 15.2892 14.3124C15.2892 14.4 15.3418 14.4788 15.4469 14.5402C15.552 14.5927 15.6921 14.6365 15.8498 14.6628C16.0074 14.6891 16.1826 14.7329 16.3666 14.7942C16.5593 14.8643 16.7257 14.9343 16.8921 15.0307C17.0498 15.1183 17.1811 15.2672 17.2862 15.4599C17.4001 15.6614 17.4527 15.8979 17.4527 16.1694C17.4527 16.5723 17.295 16.9052 16.9797 17.1504C16.6643 17.3956 16.2527 17.527 15.7447 17.527Z" fill="#00733B"/>
</svg>
