<svg width="24" height="24" viewBox="0 0 24 24" fill="none" xmlns="http://www.w3.org/2000/svg">
<g clip-path="url(#clip0_3895_9940)">
<path d="M11.9333 11.5336C13.7333 11.5336 15.1333 10.0669 15.1333 8.26689C15.1333 6.46689 13.6667 5.06689 11.8667 5.06689C10.0667 5.06689 8.66666 6.53356 8.66666 8.26689C8.66666 10.0669 10.1333 11.5336 11.9333 11.5336ZM11.8667 6.40023C11.9333 6.40023 11.9333 6.40023 11.8667 6.40023C12.9333 6.40023 13.8 7.26689 13.8 8.33356C13.8 9.40023 12.9333 10.2002 11.8667 10.2002C10.8 10.2002 9.99999 9.33356 9.99999 8.33356C9.99999 7.26689 10.8667 6.40023 11.8667 6.40023Z" fill="#5A6A85"/>
<path d="M21.8 11.1331C20.5333 9.99978 18.8667 9.39978 17.1333 9.46644H16.6C16.4667 9.99978 16.2667 10.4664 16 10.8664C16.4 10.7998 16.7333 10.7998 17.1333 10.7998C18.4 10.7331 19.6667 11.1331 20.6667 11.8664V16.6664H22V11.3331L21.8 11.1331Z" fill="#5A6A85"/>
<path d="M15.6 5.20003C15.9333 4.40003 16.8667 4.00003 17.7333 4.33337C18.5333 4.6667 18.9333 5.60003 18.6 6.4667C18.3333 7.0667 17.7333 7.4667 17.1333 7.4667C17 7.4667 16.8 7.4667 16.6667 7.40003C16.7333 7.73337 16.7333 8.0667 16.7333 8.33337V8.73337C16.8667 8.73337 17 8.80003 17.1333 8.80003C18.8 8.80003 20.1333 7.4667 20.1333 5.8667C20.1333 4.20003 18.8 2.8667 17.2 2.8667C16.1333 2.8667 15.2 3.40003 14.6667 4.33337C15 4.53337 15.3333 4.80003 15.6 5.20003Z" fill="#5A6A85"/>
<path d="M8 10.9333C7.73333 10.5333 7.53333 10.0667 7.4 9.53335H6.86667C5.13333 9.46668 3.46667 10.0667 2.2 11.1333L2 11.3333V16.6667H3.33333V11.8667C4.4 11.1333 5.6 10.7333 6.86667 10.8C7.26667 10.8 7.66667 10.8667 8 10.9333Z" fill="#5A6A85"/>
<path d="M6.86668 8.73311C7.00001 8.73311 7.13334 8.73311 7.26667 8.66645V8.26645C7.26667 7.93311 7.26668 7.59978 7.33334 7.33311C7.20001 7.39978 7.00001 7.39978 6.86668 7.39978C6.00001 7.39978 5.26668 6.66645 5.26668 5.79978C5.26668 4.93311 6.00001 4.19978 6.86668 4.19978C7.53334 4.19978 8.13334 4.59978 8.40001 5.19978C8.66668 4.86645 9.06668 4.53311 9.40001 4.26645C8.53334 2.86645 6.73334 2.39978 5.33334 3.26645C3.93334 4.13311 3.46668 5.93311 4.33334 7.33311C4.86668 8.19978 5.80001 8.73311 6.86668 8.73311Z" fill="#5A6A85"/>
<path d="M17.4 15.1333L17.2667 14.9333C15.9333 13.4667 14.0667 12.6 12.0667 12.6667C10.0667 12.6 8.13332 13.4667 6.79999 14.9333L6.66666 15.1333V20.2C6.66666 20.8 7.13332 21.3333 7.79999 21.3333H16.3333C16.9333 21.3333 17.4667 20.8 17.4667 20.2V15.1333H17.4ZM16.0667 20H7.99999V15.6C9.06666 14.5333 10.5333 14 12.0667 14C13.5333 13.9333 15 14.5333 16.0667 15.6V20Z" fill="#5A6A85"/>
</g>
<defs>
<clipPath id="clip0_3895_9940">
<rect width="24" height="24" fill="white"/>
</clipPath>
</defs>
</svg>
